<svg xmlns="http://www.w3.org/2000/svg" viewBox="0 0 64 64"><defs><style>.cls-1{fill:#f9b7a8;}.cls-2,.cls-3{fill:none;stroke:#000;stroke-miterlimit:10;stroke-width:2px;}.cls-3{stroke-dasharray:9.66 9.66;}</style></defs><title>Icon_</title><g id="Layer_3" data-name="Layer 3"><path class="cls-1" d="M55.64,46.83l-2.26-1.15C45.34,35.85,42.23,23,36.13,12l-.85-2C34.4,8,31,8.15,30.09,10A160.72,160.72,0,0,1,17.74,31c-4.22,6-8.45,11.9-10.54,19.07-.59,2,1,3.61,2.89,3.8a166.39,166.39,0,0,0,44.83-1.58C57.46,51.88,57.85,47.94,55.64,46.83Z"/></g><g id="Art"><polyline class="cls-2" points="34.79 19.2 31.79 14 28.79 19.2"/><line class="cls-3" x1="23.96" y1="27.57" x2="16.71" y2="40.12"/><polyline class="cls-2" points="14.29 44.3 11.29 49.5 17.29 49.5"/><line class="cls-3" x1="26.96" y1="49.5" x2="41.45" y2="49.5"/><polyline class="cls-2" points="46.28 49.5 52.28 49.5 49.28 44.3"/><line class="cls-3" x1="44.45" y1="35.93" x2="37.2" y2="23.38"/></g></svg>