<?xml version="1.0" encoding="utf-8"?>
<!-- Generator: Adobe Illustrator 23.0.1, SVG Export Plug-In . SVG Version: 6.00 Build 0)  -->
<svg version="1.1" id="Layer_1" xmlns="http://www.w3.org/2000/svg" xmlns:xlink="http://www.w3.org/1999/xlink" x="0px" y="0px"
	 viewBox="0 0 64 64" style="enable-background:new 0 0 64 64;" xml:space="preserve">
<style type="text/css">
	.st0{fill:#FFCC23;}
	.st1{fill:none;stroke:#000000;stroke-width:2;stroke-linecap:round;stroke-linejoin:round;stroke-miterlimit:10;}
	.st2{fill:#FFCD22;stroke:#000000;stroke-width:2;stroke-linecap:round;stroke-linejoin:round;stroke-miterlimit:10;}
	.st3{fill:#FFCD22;stroke:#000000;stroke-width:1.3;stroke-linecap:round;stroke-linejoin:round;stroke-miterlimit:10;}
</style>
<g id="Layer_4">
</g>
<g>
	<path class="st0" d="M41.4,15c-3.7-5-4.6-4.6-8.6-4.6c-0.9-0.2-5.2-0.4-6.1,0.2c-2.4,1.6-2.8,2.2-4.1,4.3c-1.5,2.5-1.6,3,0.6,4.9
		c3.1,2.8,5.9,7.5,9.5,5.8C37.3,23.6,45.2,20.1,41.4,15z"/>
	<g>
		<g>
			<path class="st0" d="M45.2,40.8c2.2-10.7-9.8-18.9-19.6-16c-9.4,2.7-11.9,17.7-5.3,24.4c7.2,7.1,21.3,6.1,25.8-3.7
				c4.3-9.4-3.4-22.2-13.6-22.7c-4.2-0.2-5.4,6.3-1.1,6.5c5.9,0.3,10.2,6.5,9,12.3c-1.2,6.3-9.6,6.7-14,4c-4-2.4-4.6-12.1,0.3-14.1
				c5.3-2.3,12.4,3.3,11.2,9.5C37.1,45,44.3,45,45.2,40.8L45.2,40.8z"/>
			<g>
				<path class="st0" d="M45.5,41.2c1.8-9.4-8.7-16.6-17.2-14.2c-8.2,2.3-10.3,15.5-4.5,21.4c6.3,6.3,18.7,5.5,22.5-3.1
					c3.7-8.2-3.1-19.6-12-20.1c-3.7-0.2-4.7,5.5-1,5.7c5.1,0.3,9,5.7,8,10.9c-1.1,5.5-8.4,5.8-12.2,3.4c-3.5-2.1-4-10.6,0.2-12.4
					c4.6-2,11.5,2,10.5,7.4C39.1,43.8,44.8,44.8,45.5,41.2L45.5,41.2z"/>
			</g>
		</g>
		<path class="st1" d="M29.5,25.7c-3.3,0.7-6.5,2.6-8.6,5.7c-4.2,6.2-2.6,14.5,3.5,18.7s14.5,2.6,18.7-3.5s2.6-14.5-3.5-18.7
			c-1.5-1.1-3.3-1.8-5.1-2.1C33,25.2,29.5,25.7,29.5,25.7z"/>
		<g>
			<polygon class="st2" points="26.9,11.5 36.9,11.5 41.3,17.2 32.1,25.3 22.7,17.2 			"/>
			<polyline class="st3" points="28.8,17.2 32.1,24.7 35.1,17.2 			"/>
			<line class="st3" x1="27.9" y1="11.5" x2="28.8" y2="17.1"/>
			<line class="st3" x1="35" y1="17.1" x2="35.9" y2="11.5"/>
			<line class="st3" x1="22.9" y1="17.2" x2="41.3" y2="17.2"/>
		</g>
		<circle class="st1" cx="32" cy="38.9" r="8"/>
	</g>
</g>
</svg>
