<?xml version="1.0" encoding="utf-8"?>
<!-- Generator: Adobe Illustrator 23.0.1, SVG Export Plug-In . SVG Version: 6.00 Build 0)  -->
<svg version="1.1" id="Layer_1" xmlns="http://www.w3.org/2000/svg" xmlns:xlink="http://www.w3.org/1999/xlink" x="0px" y="0px"
	 viewBox="0 0 64 64" style="enable-background:new 0 0 64 64;" xml:space="preserve">
<style type="text/css">
	.st0{fill:#CDE5BD;}
	.st1{fill:none;stroke:#000000;stroke-width:2;stroke-linecap:round;stroke-linejoin:round;}
</style>
<title>Icon_</title>
<g>
	<path class="st0" d="M58.6,28.9c-0.1-0.2-0.3-0.3-0.4-0.5l0,0l0,0c-2.5-3.3-5.2-6.1-8.2-8.7c-0.5-1.5-0.5-3.1-0.6-5.3
		c-0.2-3,0.2-6.9-2.9-8.5c-1.8-0.9-6.1-1.3-7.6,0.5c-0.4,0.5-0.6,1-0.8,1.6c-1.6-1.4-3.4-2.5-5.3-2.8c-4.6-0.7-8,4.7-10.8,7.4
		c-5,5-10,11.7-16,15.5c-2.7,1.7-0.2,6,2.5,4.3c0.9-0.6,1.8-1.2,2.6-1.9c0,6-0.4,11.9-0.6,17.9c-0.1,3.6-0.3,8.8,3.9,10.1
		c2.5,0.8,6,0.2,8.6,0.2l10.7,0.1c3.6,0,7.2,0.1,10.7,0.1c2,0,4.5,0.4,6.2-1c1.1-0.9,1.6-2.1,1.7-3.5c0.3-2.9,0.4-5.9,0.6-8.8
		c0.4-4.9,0.3-10.5-0.6-15.5c0.8,0.6,1.6,1.3,2.2,1.8C56.6,33.7,60.4,31.3,58.6,28.9z"/>
	<path class="st1" d="M50.2,24.2v30.4c0,1.1-0.9,2-2,2H15.3c-1.1,0-2-0.9-2-2V24.2"/>
	<path class="st1" d="M7.1,30.4l6.2-6.2l4.4-4.4L30.3,7.2c0.8-0.8,2.1-0.8,2.8,0l23.2,23.2"/>
	<polyline class="st1" points="41,15 41,8.2 46.9,8.2 46.9,20.6 	"/>
	<path class="st1" d="M31.7,39.9c-3,0-5.5,2.5-5.5,5.5v11.1h11V45.4C37.2,42.4,34.7,39.9,31.7,39.9z"/>
	<g>
		<g>
			<rect x="18.9" y="27.4" class="st1" width="7.6" height="7.8"/>
			<circle cx="24.2" cy="32.2" r="2.3"/>
		</g>
		<g>
			<rect x="36.7" y="27.4" class="st1" width="7.6" height="7.8"/>
			<circle cx="42.2" cy="32.2" r="2.3"/>
		</g>
	</g>
</g>
</svg>
